<?xml version="1.0" standalone="no"?>
<!DOCTYPE svg PUBLIC "-//W3C//DTD SVG 20010904//EN"
 "http://www.w3.org/TR/2001/REC-SVG-20010904/DTD/svg10.dtd">
<svg version="1.0" xmlns="http://www.w3.org/2000/svg"
 width="300.000000pt" height="100.000000pt" viewBox="0 0 300.000000 100.000000"
 preserveAspectRatio="xMidYMid meet">
<metadata>
Created by potrace 1.10, written by Peter Selinger 2001-2011
</metadata>
<g transform="translate(0.000000,100.000000) scale(0.100000,-0.100000)"
fill="#000000" stroke="none">
<path d="M351 970 c-181 -62 -291 -181 -335 -361 -17 -71 -20 -238 -7 -437 11
-167 -6 -158 284 -154 324 5 413 29 532 147 132 131 175 294 125 474 -22 79
-50 126 -124 208 -54 60 -112 95 -213 129 -95 32 -158 31 -262 -6z m220 -20
c129 -24 265 -131 323 -254 55 -116 54 -267 -2 -386 -34 -72 -131 -169 -204
-203 -83 -39 -132 -46 -397 -53 l-238 -7 -6 144 c-19 408 0 508 121 629 112
112 254 158 403 130z"/>
<path d="M410 843 c-81 -13 -179 -81 -227 -157 -30 -47 -53 -124 -53 -182 0
-40 27 -150 36 -142 2 2 -1 20 -7 39 -19 66 -12 164 17 229 31 70 102 141 171
172 73 32 190 31 263 -4 145 -68 223 -224 187 -375 -8 -35 -11 -63 -8 -63 11
0 31 102 31 155 0 87 -49 197 -108 244 -91 72 -197 101 -302 84z"/>
<path d="M425 701 c-184 -45 -242 -281 -98 -400 90 -75 208 -68 292 17 51 51
71 101 71 173 -1 95 -77 188 -172 208 -54 12 -50 12 -93 2z m110 -48 c64 -18
114 -92 115 -172 0 -139 -142 -231 -265 -171 -98 47 -130 164 -72 263 46 79
123 106 222 80z"/>
<path d="M714 269 c-21 -23 -66 -54 -99 -70 -33 -16 -53 -29 -44 -29 28 0 93
38 144 84 27 25 47 47 44 50 -3 3 -23 -13 -45 -35z"/>
<path d="M443 163 c20 -2 54 -2 75 0 20 2 3 4 -38 4 -41 0 -58 -2 -37 -4z"/>
<path d="M1082 867 c-19 -22 -29 -193 -31 -523 -1 -179 -1 -181 24 -208 15
-16 34 -26 52 -26 35 0 46 8 64 44 l14 29 110 -2 c61 -1 121 -2 135 -1 14 0
111 0 215 1 110 0 202 5 218 11 19 8 31 7 41 -1 15 -13 529 -11 542 2 4 4 -2
7 -14 7 -15 0 -22 6 -22 20 0 15 -7 20 -25 20 -19 0 -25 -5 -25 -21 0 -17 -4
-20 -22 -16 -12 4 -28 2 -34 -4 -9 -7 -16 -4 -24 12 -8 14 -8 19 -1 15 7 -5
11 9 11 44 0 40 -3 51 -14 47 -7 -3 -19 0 -25 6 -12 12 -140 20 -183 11 -27
-5 -28 -8 -28 -68 l0 -63 -56 -7 c-31 -4 -60 -4 -63 -1 -3 4 -5 37 -3 73 1 53
0 62 -8 43 -6 -13 -8 -39 -4 -58 5 -29 4 -32 -11 -26 -11 4 -22 0 -29 -8 -15
-20 -44 -30 -48 -17 -3 7 -16 7 -43 -1 -36 -10 -42 -8 -60 11 -18 19 -18 20
-1 7 17 -12 19 -12 14 1 -2 8 -16 15 -29 15 -18 0 -23 -5 -21 -19 3 -16 -1
-18 -31 -13 -19 3 -39 1 -45 -5 -8 -8 -16 -7 -27 2 -12 10 -21 10 -41 1 -14
-6 -26 -11 -27 -11 -2 0 -1 33 1 73 3 57 1 70 -8 60 -10 -9 -18 -8 -37 4 -21
14 -30 14 -59 4 -19 -7 -39 -9 -45 -5 -8 5 -10 -12 -7 -60 l4 -67 -80 3 -81 3
-3 51 c-2 39 2 56 18 76 l20 27 443 0 c243 0 447 1 452 2 23 7 175 -13 181
-23 4 -6 6 -35 5 -65 -3 -74 22 -73 45 2 13 40 22 55 33 52 9 -2 15 -8 14 -14
-2 -7 4 -27 12 -45 8 -18 14 -27 15 -20 0 7 -5 23 -12 35 -10 20 -10 21 5 8
10 -7 17 -27 17 -44 0 -23 3 -28 12 -19 8 8 7 22 -7 57 -20 54 -50 73 -85 55
-17 -9 -25 -9 -38 3 -33 28 -138 34 -610 30 -393 -2 -478 -5 -501 -18 -34 -17
-41 -8 -41 51 0 42 17 51 68 36 50 -15 165 1 204 29 25 18 33 20 51 10 12 -7
36 -19 52 -28 25 -14 58 -16 205 -14 96 1 247 3 336 4 119 2 165 6 177 16 14
11 23 11 57 -3 42 -16 130 -20 164 -7 11 4 36 3 57 -3 48 -13 85 3 103 44 l12
30 45 -34 c62 -47 95 -56 158 -43 71 14 121 63 121 118 0 21 -5 41 -10 44 -6
4 -10 29 -9 56 3 82 -59 142 -143 138 -24 -1 -93 -1 -153 1 -99 1 -113 -1
-137 -19 l-26 -21 -37 21 c-44 26 -99 28 -147 5 -35 -17 -38 -17 -64 1 -26 16
-53 18 -307 17 -271 -1 -279 -2 -309 -24 l-30 -22 -15 22 c-13 18 -23 21 -57
18 -38 -4 -45 -1 -84 39 -23 24 -46 41 -51 38 -5 -3 -12 -1 -16 5 -4 6 -62 9
-156 8 -132 -2 -152 -5 -167 -21z m244 -17 c74 0 86 -3 113 -26 25 -21 31 -33
31 -67 0 -23 -7 -48 -16 -58 -15 -17 -15 -20 5 -45 31 -40 28 -96 -8 -136 -29
-33 -31 -33 -131 -36 l-101 -4 3 190 c3 180 2 190 -14 175 -15 -14 -20 -14
-34 -2 -16 13 -14 15 17 20 19 3 38 2 44 -3 5 -4 46 -8 91 -8z m-172 -6 c3 -9
6 -166 6 -349 0 -334 0 -334 -22 -349 -12 -9 -18 -16 -12 -16 17 0 42 24 47
45 3 15 5 13 6 -8 1 -33 -38 -54 -69 -37 -52 28 -59 93 -40 340 6 83 7 70 8
-101 2 -138 6 -200 15 -212 10 -14 11 50 9 330 -1 191 0 353 2 360 7 18 43 16
50 -3z m876 -54 c21 0 30 -4 25 -9 -6 -6 -39 -7 -75 -4 -46 4 -59 8 -45 14 11
4 29 6 40 4 11 -3 36 -5 55 -5z m-234 -15 c13 -10 47 -14 117 -15 94 0 97 -1
97 -22 0 -13 -29 -61 -65 -108 l-64 -85 70 -3 69 -3 0 -29 c0 -17 5 -30 10
-30 6 0 10 12 10 26 0 17 23 56 65 110 36 46 65 85 65 87 0 1 -28 2 -62 2 -61
0 -63 1 -66 28 l-3 27 100 0 c56 0 103 4 106 10 11 18 35 10 35 -12 0 -21 -1
-21 -13 -3 -13 16 -14 16 -10 -11 3 -23 -9 -45 -62 -114 l-66 -85 70 -3 69 -3
4 -32 3 -32 -130 2 c-71 1 -181 2 -242 3 l-113 0 0 26 c0 17 23 55 65 109 36
46 65 85 65 87 0 2 -28 3 -62 3 l-63 0 0 33 c0 22 -4 31 -12 27 -7 -2 -20 -2
-29 2 -13 5 -13 7 -2 14 18 12 21 11 44 -6z m-186 -5 c0 -5 -4 -10 -10 -10
-11 0 -14 -177 -4 -204 8 -20 67 -21 84 -1 13 16 11 217 -2 208 -5 -2 -8 -12
-8 -21 -1 -15 -2 -15 -11 1 -12 21 -12 22 19 31 13 5 22 3 22 -3 0 -6 11 -11
25 -11 l25 0 0 -140 0 -141 -42 1 c-24 1 -63 1 -88 0 -37 -1 -49 3 -67 25 -20
23 -23 38 -25 126 -1 54 -2 107 -2 117 -1 11 6 17 21 17 11 0 25 3 29 8 11 10
34 9 34 -3z m1124 -6 c5 -14 4 -15 -9 -4 -13 11 -15 8 -15 -24 0 -31 -3 -36
-24 -36 -54 0 -56 -4 -56 -125 0 -63 -3 -116 -7 -118 -5 -3 -30 1 -57 8 -34 9
-58 10 -77 3 -16 -5 -34 -8 -41 -5 -8 3 -6 6 5 6 10 1 32 8 48 17 28 14 32 14
49 -1 11 -10 29 -15 47 -12 27 4 27 4 -4 6 l-33 1 0 139 c0 77 4 142 9 145 4
3 22 1 39 -3 16 -5 34 -5 38 -1 5 5 23 10 39 13 17 2 33 5 36 6 4 0 10 -6 13
-15z m-260 -15 c33 -26 56 -75 56 -119 l0 -30 -90 0 c-49 0 -90 -4 -90 -9 0
-5 8 -19 18 -32 23 -28 73 -30 102 -4 20 18 21 18 41 -2 l20 -20 -31 -27 c-38
-31 -108 -38 -153 -14 -69 37 -77 194 -13 247 9 7 14 16 12 20 -2 3 19 7 48 9
42 2 58 -2 80 -19z m433 1 c36 -22 60 -82 42 -109 -9 -14 -10 -14 -5 2 4 13
-1 17 -23 17 -20 0 -34 8 -45 26 -21 31 -71 31 -71 0 0 -14 14 -23 53 -36 69
-23 92 -44 92 -87 0 -72 -83 -106 -173 -71 -26 10 -57 53 -57 78 0 5 16 10 35
10 25 0 35 -4 35 -15 0 -22 44 -37 75 -25 46 17 28 39 -48 60 -49 13 -87 48
-87 79 2 74 104 116 177 71z m-1061 -82 c6 -7 -46 -78 -56 -78 -6 0 -10 20
-10 45 0 44 0 44 31 40 17 -2 33 -5 35 -7z m252 2 c6 0 -28 -56 -50 -82 -20
-24 -28 -27 -60 -22 -42 7 -42 17 5 77 27 35 33 38 66 33 20 -3 37 -5 39 -6z
m616 -32 c7 -20 6 -35 -4 -52 -11 -22 -11 -29 4 -51 20 -30 3 -34 -18 -4 -9
14 -21 19 -31 15 -15 -5 -16 1 -9 52 3 31 9 61 11 65 10 16 38 1 47 -25z
m-1066 -4 c8 5 12 -2 12 -19 0 -14 -7 -28 -15 -32 -20 -7 -21 -6 -29 42 -7 36
-6 38 7 21 8 -10 19 -16 25 -12z m608 -50 c-7 -19 -46 -18 -46 1 0 8 10 25 23
38 l22 22 3 -23 c2 -13 1 -30 -2 -38z m707 -76 c-10 -11 -27 -25 -38 -30 -14
-8 -13 -4 6 14 15 14 30 36 35 49 7 20 8 21 12 6 2 -10 -4 -28 -15 -39z
m-1515 -24 c-9 -9 -37 -18 -64 -20 l-49 -3 49 9 c27 5 54 14 59 19 6 6 13 11
16 11 3 0 -2 -7 -11 -16z m347 -13 c9 -15 -80 -24 -112 -12 -28 11 -28 11 7 7
19 -3 44 -1 55 4 27 12 43 12 50 1z m-315 -156 c7 -9 9 -19 5 -23 -4 -4 -10
-1 -12 6 -7 19 -41 14 -48 -8 -9 -30 4 -60 26 -60 10 0 19 5 19 10 0 6 -4 10
-10 10 -5 0 -10 5 -10 10 0 6 10 10 21 10 18 0 21 -5 17 -30 -3 -23 -2 -27 8
-19 7 6 15 6 18 1 3 -5 -11 -14 -31 -20 -28 -9 -43 -8 -71 4 -19 8 -32 17 -28
21 3 4 12 1 18 -5 20 -20 30 -13 14 10 -9 12 -16 29 -16 38 0 24 29 60 49 60
10 0 24 -7 31 -15z m680 5 c0 -5 -11 -10 -25 -10 -16 0 -25 -6 -25 -15 0 -9 9
-15 25 -15 14 0 25 -4 25 -10 0 -5 -11 -10 -25 -10 -16 0 -25 -6 -25 -15 0
-10 10 -15 29 -15 17 0 33 -4 36 -10 7 -11 7 -11 -47 -14 l-38 -3 0 64 0 63
35 0 c19 0 35 -4 35 -10z m94 -3 c18 -13 23 -50 14 -92 -4 -15 -14 -20 -41
-22 l-37 -1 0 64 c0 60 1 64 23 64 13 0 31 -6 41 -13z"/>
<path d="M1290 746 c0 -44 1 -46 29 -46 16 0 42 4 56 10 22 8 26 15 23 42 -3
32 -4 33 -55 36 l-53 3 0 -45z"/>
<path d="M1290 594 l0 -54 41 0 c59 0 79 14 79 56 0 38 -3 40 -72 47 l-48 5 0
-54z m76 5 c10 -17 -13 -36 -27 -22 -12 12 -4 33 11 33 5 0 12 -5 16 -11z"/>
<path d="M2376 694 c-28 -28 -19 -39 34 -39 32 0 50 4 50 12 0 18 -29 43 -50
43 -10 0 -26 -7 -34 -16z"/>
<path d="M2210 270 c0 -33 3 -40 20 -40 24 0 38 44 20 65 -23 28 -40 18 -40
-25z"/>
<path d="M1288 321 c36 -24 43 -62 15 -93 -9 -10 -11 -18 -5 -18 6 0 14 5 17
11 4 6 13 8 21 5 11 -4 14 6 14 47 0 43 -3 53 -17 53 -10 0 -31 3 -48 7 l-30
8 33 -20z"/>
<path d="M1975 294 c11 -24 22 -44 25 -44 6 0 30 60 30 75 0 5 -5 4 -11 -2 -9
-9 -19 -9 -38 2 l-27 13 21 -44z"/>
<path d="M1551 273 c0 -49 2 -54 10 -33 l10 25 13 -23 c16 -30 26 -18 26 30 0
31 -3 38 -20 38 -11 0 -20 5 -20 10 0 6 -4 10 -10 10 -6 0 -10 -25 -9 -57z"/>
<path d="M1660 321 c0 -6 -9 -11 -20 -11 -16 0 -20 -7 -20 -32 0 -53 17 -69
25 -25 10 52 24 56 18 5 -4 -28 -2 -40 4 -33 16 16 45 97 37 104 -4 3 -9 0
-11 -7 -4 -10 -8 -10 -19 -1 -10 8 -14 8 -14 0z"/>
<path d="M1730 323 c0 -19 43 -113 51 -113 5 0 9 25 9 55 0 44 -3 53 -15 49
-8 -4 -22 -1 -30 6 -8 7 -15 8 -15 3z"/>
<path d="M1810 281 c0 -49 1 -51 28 -51 24 1 25 2 10 14 -11 8 -18 26 -18 44
0 17 -4 34 -10 37 -6 4 -10 -13 -10 -44z"/>
<path d="M1224 286 c-3 -19 -1 -43 5 -53 8 -14 10 -8 11 35 0 60 -6 67 -16 18z"/>
<path d="M1255 270 c0 -35 3 -40 20 -38 16 2 20 11 20 38 0 27 -4 36 -20 38
-17 2 -20 -3 -20 -38z"/>
<path d="M2022 257 c-15 -43 -15 -47 3 -47 11 0 15 11 15 40 0 22 -1 40 -3 40
-2 0 -8 -15 -15 -33z"/>
<path d="M1960 248 c0 -28 4 -38 16 -38 11 0 14 6 8 23 -14 47 -23 53 -24 15z"/>
</g>
</svg>
